<svg xmlns="http://www.w3.org/2000/svg" viewBox="0 0 360 168" role="img" aria-labelledby="title desc">
  <title id="title">Individual Conditional Expectation diagram</title>
  <desc id="desc">Several individual prediction curves with one highlighted explanation curve and focal point.</desc>
  <g fill="none">
    <path d="M48 128h274M48 128V30" stroke="#aab3c0" stroke-width="1.25"/>
    <g stroke="#8ba0bd" stroke-width="1.4" opacity=".72">
      <path d="M49 108c38-13 59-8 90-25s57-21 85-15 54 19 96-14"/>
      <path d="M49 118c33-7 62-28 94-26s62 18 93-11 49-26 84-19"/>
      <path d="M49 91c31-5 62 4 90-19s57-30 90-22 50 15 91-13"/>
      <path d="M49 124c40-5 67-18 96-16s57-22 91-17 50-17 84-12"/>
    </g>
    <path d="M49 112c35-9 61-16 93-24s56-13 90-16 50-10 88-24" stroke="#d96d10" stroke-width="2.6"/>
    <path d="M203 128V76" stroke="#d96d10" stroke-width="1.3" stroke-dasharray="4 4" opacity=".75"/>
  </g>
  <circle cx="203" cy="75" r="5" fill="#fff" stroke="#d96d10" stroke-width="2"/>
  <g font-family="Inter,Arial,sans-serif" font-size="9" fill="#7d8796"><text x="277" y="151">feature value</text><text x="18" y="92" transform="rotate(-90 18 92)">prediction</text></g>
</svg>
